<?xml version="1.0" encoding="UTF-8"?>
<svg id="Layer_1" data-name="Layer 1" xmlns="http://www.w3.org/2000/svg" version="1.1" viewBox="0 0 512 519">
  <defs>
    <style>
      .cls-1 {
        fill: #000;
        stroke-width: 0px;
      }
    </style>
  </defs>
  <path class="cls-1" d="M472,24H40c-13.2,0-24,10.8-24,24v416c0,13.2,10.8,24,24,24h432c13.2,0,24-10.8,24-24V48c0-13.2-10.8-24-24-24ZM40,40h432c4.4,0,8,3.6,8,8v40H32v-40c0-4.4,3.6-8,8-8ZM472,472H40c-4.4,0-8-3.6-8-8V104h448v360c0,4.4-3.6,8-8,8Z"/>
  <circle class="cls-1" cx="120" cy="64" r="8"/>
  <circle class="cls-1" cx="88" cy="64" r="8"/>
  <circle class="cls-1" cx="56" cy="64" r="8"/>
  <path class="cls-1" d="M440,136H72c-4.4,0-8,3.6-8,8v128c0,4.4,3.6,8,8,8h368c4.4,0,8-3.6,8-8v-128c0-4.4-3.6-8-8-8ZM308.8,254.5l19.2-19.2,28.7,28.7h-40.7l-7.2-9.5ZM296,264h-64l32-42.7,32,42.7ZM212,264h-60.6l40.6-58.1,30.7,43.8-10.7,14.2ZM432,264h-52.7l-45.7-45.7c-3.1-3.1-8.2-3.1-11.3,0,0,0,0,0,0,0l-23.2,23.2-28.8-38.3c-2.7-3.5-7.7-4.3-11.2-1.6-.6.5-1.1,1-1.6,1.6l-24.8,33.1-34.2-48.9c-2.5-3.6-7.5-4.5-11.1-2-.8.5-1.4,1.2-2,2l-53.6,76.6h-51.8v-112h352v112Z"/>
  <path class="cls-1" d="M136,312c4.4,0,8-3.6,8-8s-3.6-8-8-8h-32c-4.4,0-8,3.6-8,8s3.6,8,8,8h32Z"/>
  <path class="cls-1" d="M296,312c4.4,0,8-3.6,8-8s-3.6-8-8-8h-128c-4.4,0-8,3.6-8,8s3.6,8,8,8h128Z"/>
  <path class="cls-1" d="M64,336c0,4.4,3.6,8,8,8h176c4.4,0,8-3.6,8-8s-3.6-8-8-8H72c-4.4,0-8,3.6-8,8Z"/>
  <path class="cls-1" d="M72,376h48c4.4,0,8-3.6,8-8s-3.6-8-8-8h-48c-4.4,0-8,3.6-8,8s3.6,8,8,8Z"/>
  <path class="cls-1" d="M72,408h128c4.4,0,8-3.6,8-8s-3.6-8-8-8H72c-4.4,0-8,3.6-8,8s3.6,8,8,8Z"/>
  <path class="cls-1" d="M440,424H72c-4.4,0-8,3.6-8,8s3.6,8,8,8h368c4.4,0,8-3.6,8-8s-3.6-8-8-8Z"/>
  <path class="cls-1" d="M440,296h-112c-4.4,0-8,3.6-8,8s3.6,8,8,8h112c4.4,0,8-3.6,8-8s-3.6-8-8-8Z"/>
  <path class="cls-1" d="M440,328h-160c-4.4,0-8,3.6-8,8s3.6,8,8,8h160c4.4,0,8-3.6,8-8s-3.6-8-8-8Z"/>
  <path class="cls-1" d="M144,368c0,4.4,3.6,8,8,8h224c4.4,0,8-3.6,8-8s-3.6-8-8-8h-224c-4.4,0-8,3.6-8,8Z"/>
  <path class="cls-1" d="M440,360h-32c-4.4,0-8,3.6-8,8s3.6,8,8,8h32c4.4,0,8-3.6,8-8s-3.6-8-8-8Z"/>
  <path class="cls-1" d="M440,392h-208c-4.4,0-8,3.6-8,8s3.6,8,8,8h208c4.4,0,8-3.6,8-8s-3.6-8-8-8Z"/>
  <circle class="cls-1" cx="304" cy="192" r="8"/>
</svg>