<?xml version="1.0" encoding="UTF-8"?>
<svg id="Layer_1" data-name="Layer 1" xmlns="http://www.w3.org/2000/svg" version="1.1" viewBox="0 0 100 97.1">
  <defs>
    <style>
      .cls-1 {
        fill: #000;
        stroke-width: 0px;
      }
    </style>
  </defs>
  <path class="cls-1" d="M78.3,81c-.1,0-.3,0-.3-.2,0-.2,0-.4.2-.5,2.2-1.2,4.1-2.9,5.6-4.9.1-.2.4-.2.5,0,.2.1.2.4,0,.5-1.5,2.2-3.5,3.9-5.8,5.2,0,0-.1,0-.2,0ZM70.4,78.3c-.6,0-1.3,0-1.9-.2-3-.5-5.7-2.1-7.5-4.7-1.5-2-2-4.5-1.6-6.9.4-2.5,1.7-4.6,3.8-6.1,1.6-1.2,3.6-1.6,5.6-1.3,2,.3,3.7,1.4,4.9,3,1,1.3,1.3,2.9,1.1,4.5-.3,1.6-1.1,3-2.5,4-.2.1-.4,0-.5,0-.1-.2,0-.4,0-.5,1.2-.8,1.9-2.1,2.2-3.5.2-1.4-.1-2.8-.9-4-1.1-1.5-2.6-2.4-4.4-2.7-1.8-.3-3.6.1-5.1,1.2-1.9,1.3-3.1,3.3-3.5,5.6s.2,4.5,1.5,6.4c1.7,2.3,4.2,3.9,7,4.4,2.8.5,5.7-.2,8.1-1.9,6.1-4.4,7.5-12.9,3.1-19-4.8-6.7-12-6.6-20.4-6.4-1.2,0-2.5,0-3.7,0H12.8c-.2,0-.4-.2-.4-.4s.2-.4.4-.4h42.9c1.3,0,2.5,0,3.7,0,8.5-.1,15.9-.3,21,6.7,4.6,6.4,3.2,15.4-3.3,20-2,1.4-4.3,2.2-6.7,2.2ZM86.2,71.6s0,0-.1,0c-.2,0-.3-.3-.2-.5,1.2-3.5,1.2-7.2.2-10.8h0c-.4-1.2-.9-2.4-1.5-3.6,0-.2,0-.4.2-.5.2,0,.4,0,.5.2.6,1.2,1.2,2.4,1.5,3.7h0c1.1,3.8,1,7.7-.2,11.3,0,.2-.2.3-.4.3ZM51.9,43.2c-.9,0-1.8,0-2.7,0-.9,0-1.9,0-2.9,0H12.8c-.2,0-.4-.2-.4-.4s.2-.4.4-.4h33.5c1,0,2,0,2.9,0,6.5.1,12.1.2,15.8-5,1.6-2.3,2.3-5.1,1.9-7.9-.5-2.8-2-5.2-4.2-6.9-1.8-1.3-4-1.8-6.2-1.5-2.2.4-4.1,1.6-5.4,3.4-2.1,3-1.5,7.1,1.5,9.2,2.3,1.7,5.6,1.2,7.3-1.2.6-.9.9-2,.7-3.1-.2-1.1-.8-2-1.6-2.7-.2-.1-.2-.4,0-.5s.4-.2.5,0c2.2,1.6,2.7,4.6,1.1,6.8-1.9,2.7-5.7,3.3-8.3,1.4-3.3-2.4-4-7-1.7-10.3,1.4-2,3.5-3.3,5.9-3.7,2.4-.4,4.8.2,6.8,1.6,2.4,1.8,4.1,4.4,4.5,7.4.5,3-.2,6-2,8.4-3.4,4.8-8.2,5.3-13.8,5.3ZM70.7,37.1c0,0-.1,0-.2,0-.2-.1-.2-.3-.1-.5.6-1.1,1.1-2.2,1.4-3.4,0-.2.3-.3.5-.3.2,0,.3.3.3.5-.3,1.2-.8,2.4-1.5,3.5,0,.1-.2.2-.3.2ZM72.6,29.6c-.2,0-.4-.2-.4-.4-.2-4-2.4-7.6-5.7-9.6-.2-.1-.2-.3-.1-.5.1-.2.3-.2.5-.1,3.6,2.1,5.9,5.9,6.1,10.2,0,.2-.1.4-.4.4,0,0,0,0,0,0Z"/>
</svg>