<?xml version="1.0" encoding="UTF-8"?>
<svg id="Layer_1" data-name="Layer 1" xmlns="http://www.w3.org/2000/svg" version="1.1" viewBox="0 0 64 65.2">
  <defs>
    <style>
      .cls-1 {
        fill: #000;
        stroke-width: 0px;
      }
    </style>
  </defs>
  <path class="cls-1" d="M56,9h-1v-5c0-.6-.4-1-1-1s-1,.4-1,1v5h-1c-.6,0-1,.4-1,1v39.5c0,3,.7,6,2,8.7v1.8c0,.6.4,1,1,1s1-.4,1-1v-1.8c1.3-2.7,2-5.7,2-8.7V11.2c1.2.4,2,1.5,2,2.8v10c0,.6.4,1,1,1s1-.4,1-1v-10c0-2.8-2.2-5-5-5ZM53,11h2v36h-2V11ZM54,55.4c-.7-1.9-1-3.9-1-5.9v-.5h2v.5c0,2-.3,4-1,5.9Z"/>
  <path class="cls-1" d="M44,31c-5,0-9,4-9,9v1.6l-2,2v-14.7c.2,0,.5,0,.7-.1l1.2,2.8c.2.5.8.8,1.3.6.5-.2.8-.8.6-1.3,0,0,0,0,0,0l-1.2-2.8c.2-.1.4-.3.6-.4l3.1,3.1c.4.4,1,.4,1.4,0,.4-.4.4-1,0-1.4l-3.1-3.1c.1-.2.3-.4.4-.6l2.8,1.2c.5.2,1.1,0,1.3-.5.2-.5,0-1.1-.5-1.3,0,0,0,0,0,0l-2.8-1.2c0-.2.1-.5.1-.7h5.1c.6,0,1-.4,1-1s-.4-1-1-1h-5.1c0-.2,0-.5-.1-.7l2.8-1.2c.5-.2.8-.8.6-1.3s-.8-.8-1.3-.6c0,0,0,0,0,0l-2.8,1.2c-.1-.2-.3-.4-.4-.6l2.2-2.2c.4-.4.4-1,0-1.4-.4-.4-1-.4-1.4,0,0,0,0,0,0,0l-2.2,2.2c-.2-.1-.4-.3-.6-.4l1.2-2.8c.2-.5,0-1.1-.5-1.3s-1.1,0-1.3.5c0,0,0,0,0,0l-1.2,2.8c-.2,0-.5-.1-.7-.1v-5.1c0-.6-.4-1-1-1s-1,.4-1,1v5.1c-.2,0-.5,0-.7.1l-1.2-2.8c-.2-.5-.8-.8-1.3-.6s-.8.8-.6,1.3c0,0,0,0,0,0l1.2,2.8c-.2.1-.4.3-.6.4l-3.1-3.1c-.4-.4-1-.4-1.4,0-.4.4-.4,1,0,1.4l3.1,3.1c-.1.2-.3.4-.4.6l-2.8-1.2c-.5-.2-1.1,0-1.3.5-.2.5,0,1.1.5,1.3,0,0,0,0,0,0l2.8,1.2c0,.2-.1.5-.1.7h-5.1c-.6,0-1,.4-1,1s.4,1,1,1h5.1c0,.2,0,.5.1.7l-2.8,1.2c-.5.2-.8.8-.6,1.3s.8.8,1.3.6c0,0,0,0,0,0l2.8-1.2c.1.2.3.4.4.6l-3.1,3.1c-.4.4-.4,1,0,1.4.4.4,1,.4,1.4,0,0,0,0,0,0,0l3.1-3.1c.2.1.4.3.6.4l-1.2,2.8c-.2.5,0,1.1.5,1.3.5.2,1.1,0,1.3-.5,0,0,0,0,0,0l1.2-2.8c.2,0,.5.1.7.1v18.7l-2-2v-1.6c0-5-4-9-9-9-.6,0-1,.4-1,1v2c0,4.8,3.8,8.7,8.6,9l3.4,3.4v3.6c0,.6.4,1,1,1s1-.4,1-1v-7.6l3.4-3.4c4.8-.2,8.6-4.2,8.6-9v-2c0-.6-.4-1-1-1ZM21,38v-.9c3.4.5,6,3.5,6,6.9v.9c-3.4-.5-6-3.5-6-6.9ZM27,22c0-2.8,2.2-5,5-5s5,2.2,5,5-2.2,5-5,5c-2.8,0-5-2.2-5-5ZM43,34c0,3.5-2.6,6.4-6,6.9v-.9c0-3.5,2.6-6.4,6-6.9v.9Z"/>
  <path class="cls-1" d="M48,3H10c-1.7,0-3,1.3-3,3v3h-1c-1.7,0-3,1.3-3,3s1.3,3,3,3h1v4h-1c-1.7,0-3,1.3-3,3s1.3,3,3,3h1v4h-1c-1.7,0-3,1.3-3,3s1.3,3,3,3h1v4h-1c-1.7,0-3,1.3-3,3s1.3,3,3,3h1v4h-1c-1.7,0-3,1.3-3,3s1.3,3,3,3h1v3c0,1.7,1.3,3,3,3h38c.6,0,1-.4,1-1V4c0-.6-.4-1-1-1ZM6,13c-.6,0-1-.4-1-1s.4-1,1-1h1v2h-1ZM6,23c-.6,0-1-.4-1-1s.4-1,1-1h1v2h-1ZM6,33c-.6,0-1-.4-1-1s.4-1,1-1h1v2h-1ZM6,43c-.6,0-1-.4-1-1s.4-1,1-1h1v2h-1ZM6,53c-.6,0-1-.4-1-1s.4-1,1-1h1v2h-1ZM9,58v-3h1c1.7,0,3-1.3,3-3v-2c0-.6-.4-1-1-1s-1,.4-1,1v2c0,.6-.4,1-1,1h-1v-8h1c1.7,0,3-1.3,3-3v-2c0-.6-.4-1-1-1s-1,.4-1,1v2c0,.6-.4,1-1,1h-1v-8h1c1.7,0,3-1.3,3-3v-2c0-.6-.4-1-1-1s-1,.4-1,1v2c0,.6-.4,1-1,1h-1v-8h1c1.7,0,3-1.3,3-3v-2c0-.6-.4-1-1-1s-1,.4-1,1v2c0,.6-.4,1-1,1h-1v-8h1c1.7,0,3-1.3,3-3v-2c0-.6-.4-1-1-1s-1,.4-1,1v2c0,.6-.4,1-1,1h-1v-7c0-.6.4-1,1-1h5v54h-5c-.6,0-1-.4-1-1ZM47,59h-30V5h30v54Z"/>
</svg>