<?xml version="1.0" encoding="UTF-8"?>
<svg id="Layer_1" data-name="Layer 1" xmlns="http://www.w3.org/2000/svg" version="1.1" viewBox="0 0 110 119.4">
  <defs>
    <style>
      .cls-1 {
        fill: #000;
        stroke-width: 0px;
      }
    </style>
  </defs>
  <path class="cls-1" d="M94.1,17.8H15.9c-4.3,0-7.8,3.5-7.8,7.8v59.4c0,4.3,3.5,7.8,7.8,7.8h78.1c4.3,0,7.8-3.5,7.8-7.8V25.6c0-4.3-3.5-7.8-7.8-7.8ZM95.6,85c0,.9-.7,1.6-1.6,1.6H15.9c-.9,0-1.6-.7-1.6-1.6V25.6c0-.9.7-1.6,1.6-1.6h78.1c.9,0,1.6.7,1.6,1.6v59.4Z"/>
  <path class="cls-1" d="M71.9,51.5c0,0-.2-.1-.2-.2l-25.3-14.2c-1.4-.9-3.2-1-4.7-.2-1.5.8-2.5,2.4-2.5,4.2v28.4c0,1.8,1,3.3,2.5,4.2.7.4,1.4.5,2.2.5s1.7-.2,2.5-.7l25.3-14.2c0,0,.2,0,.2-.2,1.3-.9,2-2.3,2-3.9s-.8-3-2-3.9h0ZM45.4,66.9v-23.1l20.6,11.5-20.6,11.5Z"/>
  <path class="cls-1" d="M69.1,95.9h-28.1c-1.7,0-3.1,1.4-3.1,3.1s1.4,3.1,3.1,3.1h28.1c1.7,0,3.1-1.4,3.1-3.1s-1.4-3.1-3.1-3.1Z"/>
</svg>